<mxfile host="Electron" modified="2024-05-06T04:33:19.932Z" agent="Mozilla/5.0 (Windows NT 10.0; Win64; x64) AppleWebKit/537.36 (KHTML, like Gecko) draw.io/24.2.5 Chrome/120.0.6099.109 Electron/28.1.0 Safari/537.36" etag="M4GBbR_KhhYclndROinF" version="24.2.5" type="device">
  <diagram id="kgpKYQtTHZ0yAKxKKP6v" name="Page-1">
    <mxGraphModel dx="2284" dy="836" grid="1" gridSize="10" guides="1" tooltips="1" connect="1" arrows="1" fold="1" page="1" pageScale="1" pageWidth="850" pageHeight="1100" math="0" shadow="0">
      <root>
        <mxCell id="0" />
        <mxCell id="1" parent="0" />
        <mxCell id="tBWeNhroIXiAKM73kzLI-2" value="Vending Machine" style="swimlane;whiteSpace=wrap;html=1;" vertex="1" parent="1">
          <mxGeometry y="360" width="840" height="890" as="geometry" />
        </mxCell>
        <mxCell id="tBWeNhroIXiAKM73kzLI-155" style="edgeStyle=orthogonalEdgeStyle;rounded=0;orthogonalLoop=1;jettySize=auto;html=1;exitX=0.5;exitY=1;exitDx=0;exitDy=0;entryX=0.5;entryY=0;entryDx=0;entryDy=0;" edge="1" parent="tBWeNhroIXiAKM73kzLI-2" source="tBWeNhroIXiAKM73kzLI-23" target="tBWeNhroIXiAKM73kzLI-128">
          <mxGeometry relative="1" as="geometry" />
        </mxCell>
        <mxCell id="tBWeNhroIXiAKM73kzLI-23" value="Select drink option" style="rounded=1;whiteSpace=wrap;html=1;" vertex="1" parent="tBWeNhroIXiAKM73kzLI-2">
          <mxGeometry x="120" y="40" width="120" height="40" as="geometry" />
        </mxCell>
        <mxCell id="tBWeNhroIXiAKM73kzLI-31" style="edgeStyle=orthogonalEdgeStyle;rounded=0;orthogonalLoop=1;jettySize=auto;html=1;exitX=0;exitY=0.5;exitDx=0;exitDy=0;entryX=0.5;entryY=0;entryDx=0;entryDy=0;" edge="1" parent="tBWeNhroIXiAKM73kzLI-2" source="tBWeNhroIXiAKM73kzLI-22" target="tBWeNhroIXiAKM73kzLI-30">
          <mxGeometry relative="1" as="geometry" />
        </mxCell>
        <mxCell id="tBWeNhroIXiAKM73kzLI-35" style="edgeStyle=orthogonalEdgeStyle;rounded=0;orthogonalLoop=1;jettySize=auto;html=1;exitX=1;exitY=0.5;exitDx=0;exitDy=0;entryX=0.5;entryY=0;entryDx=0;entryDy=0;" edge="1" parent="tBWeNhroIXiAKM73kzLI-2" source="tBWeNhroIXiAKM73kzLI-22" target="tBWeNhroIXiAKM73kzLI-29">
          <mxGeometry relative="1" as="geometry" />
        </mxCell>
        <mxCell id="tBWeNhroIXiAKM73kzLI-22" value="Select drink add-on flavor" style="rounded=1;whiteSpace=wrap;html=1;" vertex="1" parent="tBWeNhroIXiAKM73kzLI-2">
          <mxGeometry x="120" y="300" width="120" height="40" as="geometry" />
        </mxCell>
        <mxCell id="tBWeNhroIXiAKM73kzLI-27" style="edgeStyle=orthogonalEdgeStyle;rounded=0;orthogonalLoop=1;jettySize=auto;html=1;exitX=0.5;exitY=1;exitDx=0;exitDy=0;entryX=0.5;entryY=0;entryDx=0;entryDy=0;" edge="1" parent="tBWeNhroIXiAKM73kzLI-2" source="tBWeNhroIXiAKM73kzLI-19" target="tBWeNhroIXiAKM73kzLI-20">
          <mxGeometry relative="1" as="geometry" />
        </mxCell>
        <mxCell id="tBWeNhroIXiAKM73kzLI-28" style="edgeStyle=orthogonalEdgeStyle;rounded=0;orthogonalLoop=1;jettySize=auto;html=1;exitX=0.5;exitY=1;exitDx=0;exitDy=0;entryX=0.5;entryY=0;entryDx=0;entryDy=0;" edge="1" parent="tBWeNhroIXiAKM73kzLI-2" source="tBWeNhroIXiAKM73kzLI-19" target="tBWeNhroIXiAKM73kzLI-21">
          <mxGeometry relative="1" as="geometry" />
        </mxCell>
        <mxCell id="tBWeNhroIXiAKM73kzLI-19" value="Make payment" style="rounded=1;whiteSpace=wrap;html=1;" vertex="1" parent="tBWeNhroIXiAKM73kzLI-2">
          <mxGeometry x="120" y="640" width="120" height="40" as="geometry" />
        </mxCell>
        <mxCell id="tBWeNhroIXiAKM73kzLI-20" value="Dispense drink w/o option" style="rounded=1;whiteSpace=wrap;html=1;" vertex="1" parent="tBWeNhroIXiAKM73kzLI-2">
          <mxGeometry x="50" y="710" width="120" height="60" as="geometry" />
        </mxCell>
        <mxCell id="tBWeNhroIXiAKM73kzLI-21" value="Dispense drink w/ option selected" style="rounded=1;whiteSpace=wrap;html=1;" vertex="1" parent="tBWeNhroIXiAKM73kzLI-2">
          <mxGeometry x="190" y="710" width="120" height="60" as="geometry" />
        </mxCell>
        <mxCell id="tBWeNhroIXiAKM73kzLI-153" style="edgeStyle=orthogonalEdgeStyle;rounded=0;orthogonalLoop=1;jettySize=auto;html=1;exitX=0.5;exitY=1;exitDx=0;exitDy=0;entryX=0.5;entryY=0;entryDx=0;entryDy=0;" edge="1" parent="tBWeNhroIXiAKM73kzLI-2" source="tBWeNhroIXiAKM73kzLI-30" target="tBWeNhroIXiAKM73kzLI-126">
          <mxGeometry relative="1" as="geometry" />
        </mxCell>
        <mxCell id="tBWeNhroIXiAKM73kzLI-30" value="With" style="ellipse;whiteSpace=wrap;html=1;aspect=fixed;" vertex="1" parent="tBWeNhroIXiAKM73kzLI-2">
          <mxGeometry x="80" y="360" width="40" height="40" as="geometry" />
        </mxCell>
        <mxCell id="tBWeNhroIXiAKM73kzLI-152" style="edgeStyle=orthogonalEdgeStyle;rounded=0;orthogonalLoop=1;jettySize=auto;html=1;exitX=0.5;exitY=1;exitDx=0;exitDy=0;entryX=1;entryY=0.5;entryDx=0;entryDy=0;" edge="1" parent="tBWeNhroIXiAKM73kzLI-2" source="tBWeNhroIXiAKM73kzLI-29" target="tBWeNhroIXiAKM73kzLI-19">
          <mxGeometry relative="1" as="geometry" />
        </mxCell>
        <mxCell id="tBWeNhroIXiAKM73kzLI-29" value="W/O" style="ellipse;whiteSpace=wrap;html=1;aspect=fixed;" vertex="1" parent="tBWeNhroIXiAKM73kzLI-2">
          <mxGeometry x="240" y="360" width="40" height="40" as="geometry" />
        </mxCell>
        <mxCell id="tBWeNhroIXiAKM73kzLI-37" value="Assets" style="childLayout=tableLayout;recursiveResize=0;strokeColor=#98bf21;fillColor=#A7C942;shadow=1;fontColor=#000000;labelBackgroundColor=default;" vertex="1" parent="tBWeNhroIXiAKM73kzLI-2">
          <mxGeometry x="550" y="50" width="280" height="160" as="geometry" />
        </mxCell>
        <mxCell id="tBWeNhroIXiAKM73kzLI-38" style="shape=tableRow;horizontal=0;startSize=0;swimlaneHead=0;swimlaneBody=0;top=0;left=0;bottom=0;right=0;dropTarget=0;collapsible=0;recursiveResize=0;expand=0;fontStyle=0;strokeColor=inherit;fillColor=#ffffff;" vertex="1" parent="tBWeNhroIXiAKM73kzLI-37">
          <mxGeometry width="280" height="33" as="geometry" />
        </mxCell>
        <mxCell id="tBWeNhroIXiAKM73kzLI-39" value="Soda" style="connectable=0;recursiveResize=0;strokeColor=inherit;fillColor=#A7C942;align=center;fontStyle=1;fontColor=#000000;html=1;" vertex="1" parent="tBWeNhroIXiAKM73kzLI-38">
          <mxGeometry width="93" height="33" as="geometry">
            <mxRectangle width="93" height="33" as="alternateBounds" />
          </mxGeometry>
        </mxCell>
        <mxCell id="tBWeNhroIXiAKM73kzLI-40" value="Diet" style="connectable=0;recursiveResize=0;strokeColor=inherit;fillColor=#A7C942;align=center;fontStyle=1;fontColor=#000000;html=1;" vertex="1" parent="tBWeNhroIXiAKM73kzLI-38">
          <mxGeometry x="93" width="94" height="33" as="geometry">
            <mxRectangle width="94" height="33" as="alternateBounds" />
          </mxGeometry>
        </mxCell>
        <mxCell id="tBWeNhroIXiAKM73kzLI-41" value="Other" style="connectable=0;recursiveResize=0;strokeColor=inherit;fillColor=#A7C942;align=center;fontStyle=1;fontColor=#FFFFFF;html=1;" vertex="1" parent="tBWeNhroIXiAKM73kzLI-38">
          <mxGeometry x="187" width="93" height="33" as="geometry">
            <mxRectangle width="93" height="33" as="alternateBounds" />
          </mxGeometry>
        </mxCell>
        <mxCell id="tBWeNhroIXiAKM73kzLI-42" value="" style="shape=tableRow;horizontal=0;startSize=0;swimlaneHead=0;swimlaneBody=0;top=0;left=0;bottom=0;right=0;dropTarget=0;collapsible=0;recursiveResize=0;expand=0;fontStyle=0;strokeColor=inherit;fillColor=#ffffff;" vertex="1" parent="tBWeNhroIXiAKM73kzLI-37">
          <mxGeometry y="33" width="280" height="32" as="geometry" />
        </mxCell>
        <mxCell id="tBWeNhroIXiAKM73kzLI-43" value="Pepsi" style="connectable=0;recursiveResize=0;strokeColor=inherit;fillColor=inherit;align=center;whiteSpace=wrap;html=1;fontColor=#030303;" vertex="1" parent="tBWeNhroIXiAKM73kzLI-42">
          <mxGeometry width="93" height="32" as="geometry">
            <mxRectangle width="93" height="32" as="alternateBounds" />
          </mxGeometry>
        </mxCell>
        <mxCell id="tBWeNhroIXiAKM73kzLI-44" value="Diet Pepsi" style="connectable=0;recursiveResize=0;strokeColor=inherit;fillColor=inherit;align=center;whiteSpace=wrap;html=1;fontColor=#000000;" vertex="1" parent="tBWeNhroIXiAKM73kzLI-42">
          <mxGeometry x="93" width="94" height="32" as="geometry">
            <mxRectangle width="94" height="32" as="alternateBounds" />
          </mxGeometry>
        </mxCell>
        <mxCell id="tBWeNhroIXiAKM73kzLI-45" value="Unsweet Tea" style="connectable=0;recursiveResize=0;strokeColor=inherit;fillColor=inherit;align=center;whiteSpace=wrap;html=1;fontColor=#000000;" vertex="1" parent="tBWeNhroIXiAKM73kzLI-42">
          <mxGeometry x="187" width="93" height="32" as="geometry">
            <mxRectangle width="93" height="32" as="alternateBounds" />
          </mxGeometry>
        </mxCell>
        <mxCell id="tBWeNhroIXiAKM73kzLI-46" value="" style="shape=tableRow;horizontal=0;startSize=0;swimlaneHead=0;swimlaneBody=0;top=0;left=0;bottom=0;right=0;dropTarget=0;collapsible=0;recursiveResize=0;expand=0;fontStyle=1;strokeColor=inherit;fillColor=#EAF2D3;" vertex="1" parent="tBWeNhroIXiAKM73kzLI-37">
          <mxGeometry y="65" width="280" height="31" as="geometry" />
        </mxCell>
        <mxCell id="tBWeNhroIXiAKM73kzLI-47" value="Mt. Dew" style="connectable=0;recursiveResize=0;strokeColor=inherit;fillColor=inherit;whiteSpace=wrap;html=1;fontColor=#000000;" vertex="1" parent="tBWeNhroIXiAKM73kzLI-46">
          <mxGeometry width="93" height="31" as="geometry">
            <mxRectangle width="93" height="31" as="alternateBounds" />
          </mxGeometry>
        </mxCell>
        <mxCell id="tBWeNhroIXiAKM73kzLI-48" value="Diet Dew" style="connectable=0;recursiveResize=0;strokeColor=inherit;fillColor=inherit;whiteSpace=wrap;html=1;fontColor=#000000;" vertex="1" parent="tBWeNhroIXiAKM73kzLI-46">
          <mxGeometry x="93" width="94" height="31" as="geometry">
            <mxRectangle width="94" height="31" as="alternateBounds" />
          </mxGeometry>
        </mxCell>
        <mxCell id="tBWeNhroIXiAKM73kzLI-49" value="Apple Juice" style="connectable=0;recursiveResize=0;strokeColor=inherit;fillColor=inherit;whiteSpace=wrap;html=1;fontColor=#000000;" vertex="1" parent="tBWeNhroIXiAKM73kzLI-46">
          <mxGeometry x="187" width="93" height="31" as="geometry">
            <mxRectangle width="93" height="31" as="alternateBounds" />
          </mxGeometry>
        </mxCell>
        <mxCell id="tBWeNhroIXiAKM73kzLI-50" value="" style="shape=tableRow;horizontal=0;startSize=0;swimlaneHead=0;swimlaneBody=0;top=0;left=0;bottom=0;right=0;dropTarget=0;collapsible=0;recursiveResize=0;expand=0;fontStyle=0;strokeColor=inherit;fillColor=#ffffff;" vertex="1" parent="tBWeNhroIXiAKM73kzLI-37">
          <mxGeometry y="96" width="280" height="33" as="geometry" />
        </mxCell>
        <mxCell id="tBWeNhroIXiAKM73kzLI-51" value="7Up" style="connectable=0;recursiveResize=0;strokeColor=inherit;fillColor=inherit;fontStyle=0;align=center;whiteSpace=wrap;html=1;fontColor=#000000;" vertex="1" parent="tBWeNhroIXiAKM73kzLI-50">
          <mxGeometry width="93" height="33" as="geometry">
            <mxRectangle width="93" height="33" as="alternateBounds" />
          </mxGeometry>
        </mxCell>
        <mxCell id="tBWeNhroIXiAKM73kzLI-52" value="Diet 7Up" style="connectable=0;recursiveResize=0;strokeColor=inherit;fillColor=inherit;fontStyle=0;align=center;whiteSpace=wrap;html=1;fontColor=#000000;" vertex="1" parent="tBWeNhroIXiAKM73kzLI-50">
          <mxGeometry x="93" width="94" height="33" as="geometry">
            <mxRectangle width="94" height="33" as="alternateBounds" />
          </mxGeometry>
        </mxCell>
        <mxCell id="tBWeNhroIXiAKM73kzLI-53" value="Orange Juice" style="connectable=0;recursiveResize=0;strokeColor=inherit;fillColor=inherit;fontStyle=0;align=center;whiteSpace=wrap;html=1;fontColor=#000000;" vertex="1" parent="tBWeNhroIXiAKM73kzLI-50">
          <mxGeometry x="187" width="93" height="33" as="geometry">
            <mxRectangle width="93" height="33" as="alternateBounds" />
          </mxGeometry>
        </mxCell>
        <mxCell id="tBWeNhroIXiAKM73kzLI-54" value="" style="shape=tableRow;horizontal=0;startSize=0;swimlaneHead=0;swimlaneBody=0;top=0;left=0;bottom=0;right=0;dropTarget=0;collapsible=0;recursiveResize=0;expand=0;fontStyle=1;strokeColor=inherit;fillColor=#EAF2D3;" vertex="1" parent="tBWeNhroIXiAKM73kzLI-37">
          <mxGeometry y="129" width="280" height="31" as="geometry" />
        </mxCell>
        <mxCell id="tBWeNhroIXiAKM73kzLI-55" value="" style="connectable=0;recursiveResize=0;strokeColor=inherit;fillColor=inherit;whiteSpace=wrap;html=1;fontColor=#000000;" vertex="1" parent="tBWeNhroIXiAKM73kzLI-54">
          <mxGeometry width="93" height="31" as="geometry">
            <mxRectangle width="93" height="31" as="alternateBounds" />
          </mxGeometry>
        </mxCell>
        <mxCell id="tBWeNhroIXiAKM73kzLI-56" value="" style="connectable=0;recursiveResize=0;strokeColor=inherit;fillColor=inherit;whiteSpace=wrap;html=1;fontColor=#000000;" vertex="1" parent="tBWeNhroIXiAKM73kzLI-54">
          <mxGeometry x="93" width="94" height="31" as="geometry">
            <mxRectangle width="94" height="31" as="alternateBounds" />
          </mxGeometry>
        </mxCell>
        <mxCell id="tBWeNhroIXiAKM73kzLI-57" value="" style="connectable=0;recursiveResize=0;strokeColor=inherit;fillColor=inherit;whiteSpace=wrap;html=1;fontColor=#000000;" vertex="1" parent="tBWeNhroIXiAKM73kzLI-54">
          <mxGeometry x="187" width="93" height="31" as="geometry">
            <mxRectangle width="93" height="31" as="alternateBounds" />
          </mxGeometry>
        </mxCell>
        <mxCell id="tBWeNhroIXiAKM73kzLI-9" value="Payment Options" style="shape=table;startSize=30;container=1;collapsible=0;childLayout=tableLayout;fixedRows=1;rowLines=0;fontStyle=0;strokeColor=default;fontSize=16;" vertex="1" parent="tBWeNhroIXiAKM73kzLI-2">
          <mxGeometry x="360" y="50" width="180" height="120" as="geometry" />
        </mxCell>
        <mxCell id="tBWeNhroIXiAKM73kzLI-10" value="" style="shape=tableRow;horizontal=0;startSize=0;swimlaneHead=0;swimlaneBody=0;top=0;left=0;bottom=0;right=0;collapsible=0;dropTarget=0;fillColor=none;points=[[0,0.5],[1,0.5]];portConstraint=eastwest;strokeColor=inherit;fontSize=16;" vertex="1" parent="tBWeNhroIXiAKM73kzLI-9">
          <mxGeometry y="30" width="180" height="30" as="geometry" />
        </mxCell>
        <mxCell id="tBWeNhroIXiAKM73kzLI-11" value="1" style="shape=partialRectangle;html=1;whiteSpace=wrap;connectable=0;fillColor=none;top=0;left=0;bottom=0;right=0;overflow=hidden;pointerEvents=1;strokeColor=inherit;fontSize=16;" vertex="1" parent="tBWeNhroIXiAKM73kzLI-10">
          <mxGeometry width="40" height="30" as="geometry">
            <mxRectangle width="40" height="30" as="alternateBounds" />
          </mxGeometry>
        </mxCell>
        <mxCell id="tBWeNhroIXiAKM73kzLI-12" value="Cash" style="shape=partialRectangle;html=1;whiteSpace=wrap;connectable=0;fillColor=none;top=0;left=0;bottom=0;right=0;align=left;spacingLeft=6;overflow=hidden;strokeColor=inherit;fontSize=16;" vertex="1" parent="tBWeNhroIXiAKM73kzLI-10">
          <mxGeometry x="40" width="140" height="30" as="geometry">
            <mxRectangle width="140" height="30" as="alternateBounds" />
          </mxGeometry>
        </mxCell>
        <mxCell id="tBWeNhroIXiAKM73kzLI-13" value="" style="shape=tableRow;horizontal=0;startSize=0;swimlaneHead=0;swimlaneBody=0;top=0;left=0;bottom=0;right=0;collapsible=0;dropTarget=0;fillColor=none;points=[[0,0.5],[1,0.5]];portConstraint=eastwest;strokeColor=inherit;fontSize=16;" vertex="1" parent="tBWeNhroIXiAKM73kzLI-9">
          <mxGeometry y="60" width="180" height="30" as="geometry" />
        </mxCell>
        <mxCell id="tBWeNhroIXiAKM73kzLI-14" value="2" style="shape=partialRectangle;html=1;whiteSpace=wrap;connectable=0;fillColor=none;top=0;left=0;bottom=0;right=0;overflow=hidden;strokeColor=inherit;fontSize=16;" vertex="1" parent="tBWeNhroIXiAKM73kzLI-13">
          <mxGeometry width="40" height="30" as="geometry">
            <mxRectangle width="40" height="30" as="alternateBounds" />
          </mxGeometry>
        </mxCell>
        <mxCell id="tBWeNhroIXiAKM73kzLI-15" value="Debit" style="shape=partialRectangle;html=1;whiteSpace=wrap;connectable=0;fillColor=none;top=0;left=0;bottom=0;right=0;align=left;spacingLeft=6;overflow=hidden;strokeColor=inherit;fontSize=16;" vertex="1" parent="tBWeNhroIXiAKM73kzLI-13">
          <mxGeometry x="40" width="140" height="30" as="geometry">
            <mxRectangle width="140" height="30" as="alternateBounds" />
          </mxGeometry>
        </mxCell>
        <mxCell id="tBWeNhroIXiAKM73kzLI-16" value="" style="shape=tableRow;horizontal=0;startSize=0;swimlaneHead=0;swimlaneBody=0;top=0;left=0;bottom=0;right=0;collapsible=0;dropTarget=0;fillColor=none;points=[[0,0.5],[1,0.5]];portConstraint=eastwest;strokeColor=inherit;fontSize=16;" vertex="1" parent="tBWeNhroIXiAKM73kzLI-9">
          <mxGeometry y="90" width="180" height="30" as="geometry" />
        </mxCell>
        <mxCell id="tBWeNhroIXiAKM73kzLI-17" value="3" style="shape=partialRectangle;html=1;whiteSpace=wrap;connectable=0;fillColor=none;top=0;left=0;bottom=0;right=0;overflow=hidden;strokeColor=inherit;fontSize=16;" vertex="1" parent="tBWeNhroIXiAKM73kzLI-16">
          <mxGeometry width="40" height="30" as="geometry">
            <mxRectangle width="40" height="30" as="alternateBounds" />
          </mxGeometry>
        </mxCell>
        <mxCell id="tBWeNhroIXiAKM73kzLI-18" value="Credit" style="shape=partialRectangle;html=1;whiteSpace=wrap;connectable=0;fillColor=none;top=0;left=0;bottom=0;right=0;align=left;spacingLeft=6;overflow=hidden;strokeColor=inherit;fontSize=16;" vertex="1" parent="tBWeNhroIXiAKM73kzLI-16">
          <mxGeometry x="40" width="140" height="30" as="geometry">
            <mxRectangle width="140" height="30" as="alternateBounds" />
          </mxGeometry>
        </mxCell>
        <mxCell id="tBWeNhroIXiAKM73kzLI-58" value="Flavor Map" style="swimlane;startSize=20;horizontal=1;containerType=tree;" vertex="1" parent="tBWeNhroIXiAKM73kzLI-2">
          <mxGeometry x="400" y="224" width="430" height="126" as="geometry" />
        </mxCell>
        <mxCell id="tBWeNhroIXiAKM73kzLI-59" value="" style="edgeStyle=entityRelationEdgeStyle;startArrow=none;endArrow=none;segment=10;curved=1;sourcePerimeterSpacing=0;targetPerimeterSpacing=0;rounded=0;" edge="1" parent="tBWeNhroIXiAKM73kzLI-58" source="tBWeNhroIXiAKM73kzLI-63" target="tBWeNhroIXiAKM73kzLI-64">
          <mxGeometry relative="1" as="geometry" />
        </mxCell>
        <mxCell id="tBWeNhroIXiAKM73kzLI-61" value="" style="edgeStyle=entityRelationEdgeStyle;startArrow=none;endArrow=none;segment=10;curved=1;sourcePerimeterSpacing=0;targetPerimeterSpacing=0;rounded=0;" edge="1" parent="tBWeNhroIXiAKM73kzLI-58" source="tBWeNhroIXiAKM73kzLI-63" target="tBWeNhroIXiAKM73kzLI-66">
          <mxGeometry relative="1" as="geometry" />
        </mxCell>
        <mxCell id="tBWeNhroIXiAKM73kzLI-63" value="Soda Flavors -&lt;div&gt;additional&lt;/div&gt;" style="ellipse;whiteSpace=wrap;html=1;align=center;treeFolding=1;treeMoving=1;newEdgeStyle={&quot;edgeStyle&quot;:&quot;entityRelationEdgeStyle&quot;,&quot;startArrow&quot;:&quot;none&quot;,&quot;endArrow&quot;:&quot;none&quot;,&quot;segment&quot;:10,&quot;curved&quot;:1,&quot;sourcePerimeterSpacing&quot;:0,&quot;targetPerimeterSpacing&quot;:0};" vertex="1" parent="tBWeNhroIXiAKM73kzLI-58">
          <mxGeometry x="160" y="56" width="100" height="50" as="geometry" />
        </mxCell>
        <mxCell id="tBWeNhroIXiAKM73kzLI-64" value="Cherry Vanilla" style="whiteSpace=wrap;html=1;rounded=1;arcSize=50;align=center;verticalAlign=middle;strokeWidth=1;autosize=1;spacing=4;treeFolding=1;treeMoving=1;newEdgeStyle={&quot;edgeStyle&quot;:&quot;entityRelationEdgeStyle&quot;,&quot;startArrow&quot;:&quot;none&quot;,&quot;endArrow&quot;:&quot;none&quot;,&quot;segment&quot;:10,&quot;curved&quot;:1,&quot;sourcePerimeterSpacing&quot;:0,&quot;targetPerimeterSpacing&quot;:0};" vertex="1" parent="tBWeNhroIXiAKM73kzLI-58">
          <mxGeometry x="300" y="40" width="120" height="30" as="geometry" />
        </mxCell>
        <mxCell id="tBWeNhroIXiAKM73kzLI-66" value="Cherry" style="whiteSpace=wrap;html=1;rounded=1;arcSize=50;align=center;verticalAlign=middle;strokeWidth=1;autosize=1;spacing=4;treeFolding=1;treeMoving=1;newEdgeStyle={&quot;edgeStyle&quot;:&quot;entityRelationEdgeStyle&quot;,&quot;startArrow&quot;:&quot;none&quot;,&quot;endArrow&quot;:&quot;none&quot;,&quot;segment&quot;:10,&quot;curved&quot;:1,&quot;sourcePerimeterSpacing&quot;:0,&quot;targetPerimeterSpacing&quot;:0};" vertex="1" parent="tBWeNhroIXiAKM73kzLI-58">
          <mxGeometry x="20" y="40" width="80" height="30" as="geometry" />
        </mxCell>
        <mxCell id="tBWeNhroIXiAKM73kzLI-69" value="Orange" style="whiteSpace=wrap;html=1;rounded=1;arcSize=50;align=center;verticalAlign=middle;strokeWidth=1;autosize=1;spacing=4;treeFolding=1;treeMoving=1;newEdgeStyle={&quot;edgeStyle&quot;:&quot;entityRelationEdgeStyle&quot;,&quot;startArrow&quot;:&quot;none&quot;,&quot;endArrow&quot;:&quot;none&quot;,&quot;segment&quot;:10,&quot;curved&quot;:1,&quot;sourcePerimeterSpacing&quot;:0,&quot;targetPerimeterSpacing&quot;:0};" vertex="1" parent="tBWeNhroIXiAKM73kzLI-58">
          <mxGeometry x="320" y="90" width="80" height="30" as="geometry" />
        </mxCell>
        <mxCell id="tBWeNhroIXiAKM73kzLI-70" value="" style="edgeStyle=entityRelationEdgeStyle;startArrow=none;endArrow=none;segment=10;curved=1;sourcePerimeterSpacing=0;targetPerimeterSpacing=0;rounded=0;exitX=1;exitY=0.5;exitDx=0;exitDy=0;" edge="1" target="tBWeNhroIXiAKM73kzLI-69" parent="tBWeNhroIXiAKM73kzLI-58" source="tBWeNhroIXiAKM73kzLI-63">
          <mxGeometry relative="1" as="geometry">
            <mxPoint x="190" y="222" as="sourcePoint" />
          </mxGeometry>
        </mxCell>
        <mxCell id="tBWeNhroIXiAKM73kzLI-75" value="Vanilla" style="whiteSpace=wrap;html=1;rounded=1;arcSize=50;align=center;verticalAlign=middle;strokeWidth=1;autosize=1;spacing=4;treeFolding=1;treeMoving=1;newEdgeStyle={&quot;edgeStyle&quot;:&quot;entityRelationEdgeStyle&quot;,&quot;startArrow&quot;:&quot;none&quot;,&quot;endArrow&quot;:&quot;none&quot;,&quot;segment&quot;:10,&quot;curved&quot;:1,&quot;sourcePerimeterSpacing&quot;:0,&quot;targetPerimeterSpacing&quot;:0};" vertex="1" parent="tBWeNhroIXiAKM73kzLI-58">
          <mxGeometry x="20" y="90" width="80" height="30" as="geometry" />
        </mxCell>
        <mxCell id="tBWeNhroIXiAKM73kzLI-76" value="" style="edgeStyle=entityRelationEdgeStyle;startArrow=none;endArrow=none;segment=10;curved=1;sourcePerimeterSpacing=0;targetPerimeterSpacing=0;rounded=0;" edge="1" parent="tBWeNhroIXiAKM73kzLI-58" source="tBWeNhroIXiAKM73kzLI-63" target="tBWeNhroIXiAKM73kzLI-75">
          <mxGeometry relative="1" as="geometry">
            <mxPoint x="160" y="81" as="sourcePoint" />
            <mxPoint x="140" y="55" as="targetPoint" />
          </mxGeometry>
        </mxCell>
        <mxCell id="tBWeNhroIXiAKM73kzLI-81" value="Models" style="shape=table;startSize=30;container=1;collapsible=0;childLayout=tableLayout;fixedRows=1;rowLines=0;fontStyle=0;strokeColor=default;fontSize=16;" vertex="1" parent="tBWeNhroIXiAKM73kzLI-2">
          <mxGeometry x="650" y="360" width="180" height="120" as="geometry" />
        </mxCell>
        <mxCell id="tBWeNhroIXiAKM73kzLI-82" value="" style="shape=tableRow;horizontal=0;startSize=0;swimlaneHead=0;swimlaneBody=0;top=0;left=0;bottom=0;right=0;collapsible=0;dropTarget=0;fillColor=none;points=[[0,0.5],[1,0.5]];portConstraint=eastwest;strokeColor=inherit;fontSize=16;" vertex="1" parent="tBWeNhroIXiAKM73kzLI-81">
          <mxGeometry y="30" width="180" height="30" as="geometry" />
        </mxCell>
        <mxCell id="tBWeNhroIXiAKM73kzLI-83" value="1" style="shape=partialRectangle;html=1;whiteSpace=wrap;connectable=0;fillColor=none;top=0;left=0;bottom=0;right=0;overflow=hidden;pointerEvents=1;strokeColor=inherit;fontSize=16;" vertex="1" parent="tBWeNhroIXiAKM73kzLI-82">
          <mxGeometry width="40" height="30" as="geometry">
            <mxRectangle width="40" height="30" as="alternateBounds" />
          </mxGeometry>
        </mxCell>
        <mxCell id="tBWeNhroIXiAKM73kzLI-84" value="Soda" style="shape=partialRectangle;html=1;whiteSpace=wrap;connectable=0;fillColor=none;top=0;left=0;bottom=0;right=0;align=left;spacingLeft=6;overflow=hidden;strokeColor=inherit;fontSize=16;" vertex="1" parent="tBWeNhroIXiAKM73kzLI-82">
          <mxGeometry x="40" width="140" height="30" as="geometry">
            <mxRectangle width="140" height="30" as="alternateBounds" />
          </mxGeometry>
        </mxCell>
        <mxCell id="tBWeNhroIXiAKM73kzLI-85" value="" style="shape=tableRow;horizontal=0;startSize=0;swimlaneHead=0;swimlaneBody=0;top=0;left=0;bottom=0;right=0;collapsible=0;dropTarget=0;fillColor=none;points=[[0,0.5],[1,0.5]];portConstraint=eastwest;strokeColor=inherit;fontSize=16;" vertex="1" parent="tBWeNhroIXiAKM73kzLI-81">
          <mxGeometry y="60" width="180" height="30" as="geometry" />
        </mxCell>
        <mxCell id="tBWeNhroIXiAKM73kzLI-86" value="2" style="shape=partialRectangle;html=1;whiteSpace=wrap;connectable=0;fillColor=none;top=0;left=0;bottom=0;right=0;overflow=hidden;strokeColor=inherit;fontSize=16;" vertex="1" parent="tBWeNhroIXiAKM73kzLI-85">
          <mxGeometry width="40" height="30" as="geometry">
            <mxRectangle width="40" height="30" as="alternateBounds" />
          </mxGeometry>
        </mxCell>
        <mxCell id="tBWeNhroIXiAKM73kzLI-87" value="Diet" style="shape=partialRectangle;html=1;whiteSpace=wrap;connectable=0;fillColor=none;top=0;left=0;bottom=0;right=0;align=left;spacingLeft=6;overflow=hidden;strokeColor=inherit;fontSize=16;" vertex="1" parent="tBWeNhroIXiAKM73kzLI-85">
          <mxGeometry x="40" width="140" height="30" as="geometry">
            <mxRectangle width="140" height="30" as="alternateBounds" />
          </mxGeometry>
        </mxCell>
        <mxCell id="tBWeNhroIXiAKM73kzLI-88" value="" style="shape=tableRow;horizontal=0;startSize=0;swimlaneHead=0;swimlaneBody=0;top=0;left=0;bottom=0;right=0;collapsible=0;dropTarget=0;fillColor=none;points=[[0,0.5],[1,0.5]];portConstraint=eastwest;strokeColor=inherit;fontSize=16;" vertex="1" parent="tBWeNhroIXiAKM73kzLI-81">
          <mxGeometry y="90" width="180" height="30" as="geometry" />
        </mxCell>
        <mxCell id="tBWeNhroIXiAKM73kzLI-89" value="3" style="shape=partialRectangle;html=1;whiteSpace=wrap;connectable=0;fillColor=none;top=0;left=0;bottom=0;right=0;overflow=hidden;strokeColor=inherit;fontSize=16;" vertex="1" parent="tBWeNhroIXiAKM73kzLI-88">
          <mxGeometry width="40" height="30" as="geometry">
            <mxRectangle width="40" height="30" as="alternateBounds" />
          </mxGeometry>
        </mxCell>
        <mxCell id="tBWeNhroIXiAKM73kzLI-90" value="Other" style="shape=partialRectangle;html=1;whiteSpace=wrap;connectable=0;fillColor=none;top=0;left=0;bottom=0;right=0;align=left;spacingLeft=6;overflow=hidden;strokeColor=inherit;fontSize=16;" vertex="1" parent="tBWeNhroIXiAKM73kzLI-88">
          <mxGeometry x="40" width="140" height="30" as="geometry">
            <mxRectangle width="140" height="30" as="alternateBounds" />
          </mxGeometry>
        </mxCell>
        <mxCell id="tBWeNhroIXiAKM73kzLI-4" value="DBs" style="swimlane;fontStyle=0;childLayout=stackLayout;horizontal=1;startSize=30;horizontalStack=0;resizeParent=1;resizeParentMax=0;resizeLast=0;collapsible=1;marginBottom=0;whiteSpace=wrap;html=1;" vertex="1" parent="tBWeNhroIXiAKM73kzLI-2">
          <mxGeometry x="500" y="360" width="140" height="150" as="geometry" />
        </mxCell>
        <mxCell id="tBWeNhroIXiAKM73kzLI-5" value="Drinks" style="text;strokeColor=none;fillColor=none;align=left;verticalAlign=middle;spacingLeft=4;spacingRight=4;overflow=hidden;points=[[0,0.5],[1,0.5]];portConstraint=eastwest;rotatable=0;whiteSpace=wrap;html=1;" vertex="1" parent="tBWeNhroIXiAKM73kzLI-4">
          <mxGeometry y="30" width="140" height="30" as="geometry" />
        </mxCell>
        <mxCell id="tBWeNhroIXiAKM73kzLI-6" value="Flavors" style="text;strokeColor=none;fillColor=none;align=left;verticalAlign=middle;spacingLeft=4;spacingRight=4;overflow=hidden;points=[[0,0.5],[1,0.5]];portConstraint=eastwest;rotatable=0;whiteSpace=wrap;html=1;" vertex="1" parent="tBWeNhroIXiAKM73kzLI-4">
          <mxGeometry y="60" width="140" height="30" as="geometry" />
        </mxCell>
        <mxCell id="tBWeNhroIXiAKM73kzLI-7" value="Payments" style="text;strokeColor=none;fillColor=none;align=left;verticalAlign=middle;spacingLeft=4;spacingRight=4;overflow=hidden;points=[[0,0.5],[1,0.5]];portConstraint=eastwest;rotatable=0;whiteSpace=wrap;html=1;" vertex="1" parent="tBWeNhroIXiAKM73kzLI-4">
          <mxGeometry y="90" width="140" height="30" as="geometry" />
        </mxCell>
        <mxCell id="tBWeNhroIXiAKM73kzLI-125" value="Inventory" style="text;strokeColor=none;fillColor=none;align=left;verticalAlign=middle;spacingLeft=4;spacingRight=4;overflow=hidden;points=[[0,0.5],[1,0.5]];portConstraint=eastwest;rotatable=0;whiteSpace=wrap;html=1;" vertex="1" parent="tBWeNhroIXiAKM73kzLI-4">
          <mxGeometry y="120" width="140" height="30" as="geometry" />
        </mxCell>
        <mxCell id="tBWeNhroIXiAKM73kzLI-101" value="Addt. Models" style="shape=table;startSize=30;container=1;collapsible=0;childLayout=tableLayout;fixedRows=1;rowLines=0;fontStyle=0;strokeColor=default;fontSize=16;" vertex="1" parent="tBWeNhroIXiAKM73kzLI-2">
          <mxGeometry x="650" y="490" width="180" height="150" as="geometry" />
        </mxCell>
        <mxCell id="tBWeNhroIXiAKM73kzLI-102" value="" style="shape=tableRow;horizontal=0;startSize=0;swimlaneHead=0;swimlaneBody=0;top=0;left=0;bottom=0;right=0;collapsible=0;dropTarget=0;fillColor=none;points=[[0,0.5],[1,0.5]];portConstraint=eastwest;strokeColor=inherit;fontSize=16;" vertex="1" parent="tBWeNhroIXiAKM73kzLI-101">
          <mxGeometry y="30" width="180" height="30" as="geometry" />
        </mxCell>
        <mxCell id="tBWeNhroIXiAKM73kzLI-103" value="1" style="shape=partialRectangle;html=1;whiteSpace=wrap;connectable=0;fillColor=none;top=0;left=0;bottom=0;right=0;overflow=hidden;pointerEvents=1;strokeColor=inherit;fontSize=16;" vertex="1" parent="tBWeNhroIXiAKM73kzLI-102">
          <mxGeometry width="40" height="30" as="geometry">
            <mxRectangle width="40" height="30" as="alternateBounds" />
          </mxGeometry>
        </mxCell>
        <mxCell id="tBWeNhroIXiAKM73kzLI-104" value="Payments" style="shape=partialRectangle;html=1;whiteSpace=wrap;connectable=0;fillColor=none;top=0;left=0;bottom=0;right=0;align=left;spacingLeft=6;overflow=hidden;strokeColor=inherit;fontSize=16;" vertex="1" parent="tBWeNhroIXiAKM73kzLI-102">
          <mxGeometry x="40" width="140" height="30" as="geometry">
            <mxRectangle width="140" height="30" as="alternateBounds" />
          </mxGeometry>
        </mxCell>
        <mxCell id="tBWeNhroIXiAKM73kzLI-105" value="" style="shape=tableRow;horizontal=0;startSize=0;swimlaneHead=0;swimlaneBody=0;top=0;left=0;bottom=0;right=0;collapsible=0;dropTarget=0;fillColor=none;points=[[0,0.5],[1,0.5]];portConstraint=eastwest;strokeColor=inherit;fontSize=16;" vertex="1" parent="tBWeNhroIXiAKM73kzLI-101">
          <mxGeometry y="60" width="180" height="30" as="geometry" />
        </mxCell>
        <mxCell id="tBWeNhroIXiAKM73kzLI-106" value="2" style="shape=partialRectangle;html=1;whiteSpace=wrap;connectable=0;fillColor=none;top=0;left=0;bottom=0;right=0;overflow=hidden;strokeColor=inherit;fontSize=16;" vertex="1" parent="tBWeNhroIXiAKM73kzLI-105">
          <mxGeometry width="40" height="30" as="geometry">
            <mxRectangle width="40" height="30" as="alternateBounds" />
          </mxGeometry>
        </mxCell>
        <mxCell id="tBWeNhroIXiAKM73kzLI-107" value="Flavors" style="shape=partialRectangle;html=1;whiteSpace=wrap;connectable=0;fillColor=none;top=0;left=0;bottom=0;right=0;align=left;spacingLeft=6;overflow=hidden;strokeColor=inherit;fontSize=16;" vertex="1" parent="tBWeNhroIXiAKM73kzLI-105">
          <mxGeometry x="40" width="140" height="30" as="geometry">
            <mxRectangle width="140" height="30" as="alternateBounds" />
          </mxGeometry>
        </mxCell>
        <mxCell id="tBWeNhroIXiAKM73kzLI-108" value="" style="shape=tableRow;horizontal=0;startSize=0;swimlaneHead=0;swimlaneBody=0;top=0;left=0;bottom=0;right=0;collapsible=0;dropTarget=0;fillColor=none;points=[[0,0.5],[1,0.5]];portConstraint=eastwest;strokeColor=inherit;fontSize=16;" vertex="1" parent="tBWeNhroIXiAKM73kzLI-101">
          <mxGeometry y="90" width="180" height="30" as="geometry" />
        </mxCell>
        <mxCell id="tBWeNhroIXiAKM73kzLI-109" value="3" style="shape=partialRectangle;html=1;whiteSpace=wrap;connectable=0;fillColor=none;top=0;left=0;bottom=0;right=0;overflow=hidden;strokeColor=inherit;fontSize=16;" vertex="1" parent="tBWeNhroIXiAKM73kzLI-108">
          <mxGeometry width="40" height="30" as="geometry">
            <mxRectangle width="40" height="30" as="alternateBounds" />
          </mxGeometry>
        </mxCell>
        <mxCell id="tBWeNhroIXiAKM73kzLI-110" value="Drink Inventory" style="shape=partialRectangle;html=1;whiteSpace=wrap;connectable=0;fillColor=none;top=0;left=0;bottom=0;right=0;align=left;spacingLeft=6;overflow=hidden;strokeColor=inherit;fontSize=16;" vertex="1" parent="tBWeNhroIXiAKM73kzLI-108">
          <mxGeometry x="40" width="140" height="30" as="geometry">
            <mxRectangle width="140" height="30" as="alternateBounds" />
          </mxGeometry>
        </mxCell>
        <mxCell id="tBWeNhroIXiAKM73kzLI-130" value="" style="shape=tableRow;horizontal=0;startSize=0;swimlaneHead=0;swimlaneBody=0;top=0;left=0;bottom=0;right=0;collapsible=0;dropTarget=0;fillColor=none;points=[[0,0.5],[1,0.5]];portConstraint=eastwest;strokeColor=inherit;fontSize=16;" vertex="1" parent="tBWeNhroIXiAKM73kzLI-101">
          <mxGeometry y="120" width="180" height="30" as="geometry" />
        </mxCell>
        <mxCell id="tBWeNhroIXiAKM73kzLI-131" value="4" style="shape=partialRectangle;html=1;whiteSpace=wrap;connectable=0;fillColor=none;top=0;left=0;bottom=0;right=0;overflow=hidden;strokeColor=inherit;fontSize=16;" vertex="1" parent="tBWeNhroIXiAKM73kzLI-130">
          <mxGeometry width="40" height="30" as="geometry">
            <mxRectangle width="40" height="30" as="alternateBounds" />
          </mxGeometry>
        </mxCell>
        <mxCell id="tBWeNhroIXiAKM73kzLI-132" value="Flavor Inventory" style="shape=partialRectangle;html=1;whiteSpace=wrap;connectable=0;fillColor=none;top=0;left=0;bottom=0;right=0;align=left;spacingLeft=6;overflow=hidden;strokeColor=inherit;fontSize=16;" vertex="1" parent="tBWeNhroIXiAKM73kzLI-130">
          <mxGeometry x="40" width="140" height="30" as="geometry">
            <mxRectangle width="140" height="30" as="alternateBounds" />
          </mxGeometry>
        </mxCell>
        <mxCell id="tBWeNhroIXiAKM73kzLI-154" style="edgeStyle=orthogonalEdgeStyle;rounded=0;orthogonalLoop=1;jettySize=auto;html=1;exitX=0.5;exitY=1;exitDx=0;exitDy=0;entryX=0.5;entryY=0;entryDx=0;entryDy=0;" edge="1" parent="tBWeNhroIXiAKM73kzLI-2" source="tBWeNhroIXiAKM73kzLI-126" target="tBWeNhroIXiAKM73kzLI-135">
          <mxGeometry relative="1" as="geometry" />
        </mxCell>
        <mxCell id="tBWeNhroIXiAKM73kzLI-126" value="Check inventory" style="rounded=1;whiteSpace=wrap;html=1;" vertex="1" parent="tBWeNhroIXiAKM73kzLI-2">
          <mxGeometry x="40" y="425" width="120" height="35" as="geometry" />
        </mxCell>
        <mxCell id="tBWeNhroIXiAKM73kzLI-156" style="edgeStyle=orthogonalEdgeStyle;rounded=0;orthogonalLoop=1;jettySize=auto;html=1;exitX=0.5;exitY=1;exitDx=0;exitDy=0;entryX=0.5;entryY=0;entryDx=0;entryDy=0;" edge="1" parent="tBWeNhroIXiAKM73kzLI-2" source="tBWeNhroIXiAKM73kzLI-128" target="tBWeNhroIXiAKM73kzLI-133">
          <mxGeometry relative="1" as="geometry" />
        </mxCell>
        <mxCell id="tBWeNhroIXiAKM73kzLI-128" value="Check inventory" style="rounded=1;whiteSpace=wrap;html=1;" vertex="1" parent="tBWeNhroIXiAKM73kzLI-2">
          <mxGeometry x="120" y="100" width="120" height="40" as="geometry" />
        </mxCell>
        <mxCell id="tBWeNhroIXiAKM73kzLI-139" style="edgeStyle=orthogonalEdgeStyle;rounded=0;orthogonalLoop=1;jettySize=auto;html=1;exitX=0.5;exitY=1;exitDx=0;exitDy=0;" edge="1" parent="tBWeNhroIXiAKM73kzLI-2" source="tBWeNhroIXiAKM73kzLI-133" target="tBWeNhroIXiAKM73kzLI-136">
          <mxGeometry relative="1" as="geometry" />
        </mxCell>
        <mxCell id="tBWeNhroIXiAKM73kzLI-141" style="edgeStyle=orthogonalEdgeStyle;rounded=0;orthogonalLoop=1;jettySize=auto;html=1;exitX=0.5;exitY=1;exitDx=0;exitDy=0;entryX=0.5;entryY=0;entryDx=0;entryDy=0;" edge="1" parent="tBWeNhroIXiAKM73kzLI-2" source="tBWeNhroIXiAKM73kzLI-133" target="tBWeNhroIXiAKM73kzLI-140">
          <mxGeometry relative="1" as="geometry" />
        </mxCell>
        <mxCell id="tBWeNhroIXiAKM73kzLI-133" value="Available" style="rounded=1;whiteSpace=wrap;html=1;" vertex="1" parent="tBWeNhroIXiAKM73kzLI-2">
          <mxGeometry x="120" y="160" width="120" height="40" as="geometry" />
        </mxCell>
        <mxCell id="tBWeNhroIXiAKM73kzLI-151" style="edgeStyle=orthogonalEdgeStyle;rounded=0;orthogonalLoop=1;jettySize=auto;html=1;exitX=1;exitY=0.5;exitDx=0;exitDy=0;entryX=0.5;entryY=0;entryDx=0;entryDy=0;" edge="1" parent="tBWeNhroIXiAKM73kzLI-2" source="tBWeNhroIXiAKM73kzLI-136" target="tBWeNhroIXiAKM73kzLI-22">
          <mxGeometry relative="1" as="geometry" />
        </mxCell>
        <mxCell id="tBWeNhroIXiAKM73kzLI-136" value="Yes" style="ellipse;whiteSpace=wrap;html=1;aspect=fixed;" vertex="1" parent="tBWeNhroIXiAKM73kzLI-2">
          <mxGeometry x="120" y="240" width="40" height="40" as="geometry" />
        </mxCell>
        <mxCell id="tBWeNhroIXiAKM73kzLI-142" style="edgeStyle=orthogonalEdgeStyle;rounded=0;orthogonalLoop=1;jettySize=auto;html=1;exitX=1;exitY=0.5;exitDx=0;exitDy=0;entryX=1;entryY=0.5;entryDx=0;entryDy=0;" edge="1" parent="tBWeNhroIXiAKM73kzLI-2" source="tBWeNhroIXiAKM73kzLI-140" target="tBWeNhroIXiAKM73kzLI-23">
          <mxGeometry relative="1" as="geometry" />
        </mxCell>
        <mxCell id="tBWeNhroIXiAKM73kzLI-140" value="No" style="ellipse;whiteSpace=wrap;html=1;aspect=fixed;" vertex="1" parent="tBWeNhroIXiAKM73kzLI-2">
          <mxGeometry x="200" y="240" width="40" height="40" as="geometry" />
        </mxCell>
        <mxCell id="tBWeNhroIXiAKM73kzLI-149" style="edgeStyle=orthogonalEdgeStyle;rounded=0;orthogonalLoop=1;jettySize=auto;html=1;exitX=0.5;exitY=1;exitDx=0;exitDy=0;entryX=0.5;entryY=0;entryDx=0;entryDy=0;" edge="1" parent="tBWeNhroIXiAKM73kzLI-2" source="tBWeNhroIXiAKM73kzLI-145" target="tBWeNhroIXiAKM73kzLI-19">
          <mxGeometry relative="1" as="geometry" />
        </mxCell>
        <mxCell id="tBWeNhroIXiAKM73kzLI-145" value="Yes" style="ellipse;whiteSpace=wrap;html=1;aspect=fixed;" vertex="1" parent="tBWeNhroIXiAKM73kzLI-2">
          <mxGeometry x="40" y="560" width="40" height="40" as="geometry" />
        </mxCell>
        <mxCell id="tBWeNhroIXiAKM73kzLI-146" style="edgeStyle=orthogonalEdgeStyle;rounded=0;orthogonalLoop=1;jettySize=auto;html=1;exitX=1;exitY=0.5;exitDx=0;exitDy=0;entryX=0.5;entryY=1;entryDx=0;entryDy=0;" edge="1" parent="tBWeNhroIXiAKM73kzLI-2" source="tBWeNhroIXiAKM73kzLI-144" target="tBWeNhroIXiAKM73kzLI-22">
          <mxGeometry relative="1" as="geometry" />
        </mxCell>
        <mxCell id="tBWeNhroIXiAKM73kzLI-144" value="No" style="ellipse;whiteSpace=wrap;html=1;aspect=fixed;" vertex="1" parent="tBWeNhroIXiAKM73kzLI-2">
          <mxGeometry x="120" y="560" width="40" height="40" as="geometry" />
        </mxCell>
        <mxCell id="tBWeNhroIXiAKM73kzLI-147" style="edgeStyle=orthogonalEdgeStyle;rounded=0;orthogonalLoop=1;jettySize=auto;html=1;exitX=0.5;exitY=1;exitDx=0;exitDy=0;entryX=0.5;entryY=0;entryDx=0;entryDy=0;" edge="1" parent="tBWeNhroIXiAKM73kzLI-2" source="tBWeNhroIXiAKM73kzLI-135" target="tBWeNhroIXiAKM73kzLI-145">
          <mxGeometry relative="1" as="geometry" />
        </mxCell>
        <mxCell id="tBWeNhroIXiAKM73kzLI-148" style="edgeStyle=orthogonalEdgeStyle;rounded=0;orthogonalLoop=1;jettySize=auto;html=1;exitX=0.5;exitY=1;exitDx=0;exitDy=0;entryX=0.5;entryY=0;entryDx=0;entryDy=0;" edge="1" parent="tBWeNhroIXiAKM73kzLI-2" source="tBWeNhroIXiAKM73kzLI-135" target="tBWeNhroIXiAKM73kzLI-144">
          <mxGeometry relative="1" as="geometry" />
        </mxCell>
        <mxCell id="tBWeNhroIXiAKM73kzLI-135" value="Available" style="rounded=1;whiteSpace=wrap;html=1;" vertex="1" parent="tBWeNhroIXiAKM73kzLI-2">
          <mxGeometry x="40" y="480" width="120" height="40" as="geometry" />
        </mxCell>
        <mxCell id="tBWeNhroIXiAKM73kzLI-159" value="Invetory Control" style="shape=table;startSize=30;container=1;collapsible=0;childLayout=tableLayout;fixedRows=1;rowLines=0;fontStyle=0;strokeColor=default;fontSize=16;" vertex="1" parent="tBWeNhroIXiAKM73kzLI-2">
          <mxGeometry x="460" y="520" width="180" height="120" as="geometry" />
        </mxCell>
        <mxCell id="tBWeNhroIXiAKM73kzLI-160" value="" style="shape=tableRow;horizontal=0;startSize=0;swimlaneHead=0;swimlaneBody=0;top=0;left=0;bottom=0;right=0;collapsible=0;dropTarget=0;fillColor=none;points=[[0,0.5],[1,0.5]];portConstraint=eastwest;strokeColor=inherit;fontSize=16;" vertex="1" parent="tBWeNhroIXiAKM73kzLI-159">
          <mxGeometry y="30" width="180" height="30" as="geometry" />
        </mxCell>
        <mxCell id="tBWeNhroIXiAKM73kzLI-161" value="1" style="shape=partialRectangle;html=1;whiteSpace=wrap;connectable=0;fillColor=none;top=0;left=0;bottom=0;right=0;overflow=hidden;pointerEvents=1;strokeColor=inherit;fontSize=16;" vertex="1" parent="tBWeNhroIXiAKM73kzLI-160">
          <mxGeometry width="40" height="30" as="geometry">
            <mxRectangle width="40" height="30" as="alternateBounds" />
          </mxGeometry>
        </mxCell>
        <mxCell id="tBWeNhroIXiAKM73kzLI-162" value="Cash" style="shape=partialRectangle;html=1;whiteSpace=wrap;connectable=0;fillColor=none;top=0;left=0;bottom=0;right=0;align=left;spacingLeft=6;overflow=hidden;strokeColor=inherit;fontSize=16;" vertex="1" parent="tBWeNhroIXiAKM73kzLI-160">
          <mxGeometry x="40" width="140" height="30" as="geometry">
            <mxRectangle width="140" height="30" as="alternateBounds" />
          </mxGeometry>
        </mxCell>
        <mxCell id="tBWeNhroIXiAKM73kzLI-163" value="" style="shape=tableRow;horizontal=0;startSize=0;swimlaneHead=0;swimlaneBody=0;top=0;left=0;bottom=0;right=0;collapsible=0;dropTarget=0;fillColor=none;points=[[0,0.5],[1,0.5]];portConstraint=eastwest;strokeColor=inherit;fontSize=16;" vertex="1" parent="tBWeNhroIXiAKM73kzLI-159">
          <mxGeometry y="60" width="180" height="30" as="geometry" />
        </mxCell>
        <mxCell id="tBWeNhroIXiAKM73kzLI-164" value="2" style="shape=partialRectangle;html=1;whiteSpace=wrap;connectable=0;fillColor=none;top=0;left=0;bottom=0;right=0;overflow=hidden;strokeColor=inherit;fontSize=16;" vertex="1" parent="tBWeNhroIXiAKM73kzLI-163">
          <mxGeometry width="40" height="30" as="geometry">
            <mxRectangle width="40" height="30" as="alternateBounds" />
          </mxGeometry>
        </mxCell>
        <mxCell id="tBWeNhroIXiAKM73kzLI-165" value="Drink" style="shape=partialRectangle;html=1;whiteSpace=wrap;connectable=0;fillColor=none;top=0;left=0;bottom=0;right=0;align=left;spacingLeft=6;overflow=hidden;strokeColor=inherit;fontSize=16;" vertex="1" parent="tBWeNhroIXiAKM73kzLI-163">
          <mxGeometry x="40" width="140" height="30" as="geometry">
            <mxRectangle width="140" height="30" as="alternateBounds" />
          </mxGeometry>
        </mxCell>
        <mxCell id="tBWeNhroIXiAKM73kzLI-166" value="" style="shape=tableRow;horizontal=0;startSize=0;swimlaneHead=0;swimlaneBody=0;top=0;left=0;bottom=0;right=0;collapsible=0;dropTarget=0;fillColor=none;points=[[0,0.5],[1,0.5]];portConstraint=eastwest;strokeColor=inherit;fontSize=16;" vertex="1" parent="tBWeNhroIXiAKM73kzLI-159">
          <mxGeometry y="90" width="180" height="30" as="geometry" />
        </mxCell>
        <mxCell id="tBWeNhroIXiAKM73kzLI-167" value="3" style="shape=partialRectangle;html=1;whiteSpace=wrap;connectable=0;fillColor=none;top=0;left=0;bottom=0;right=0;overflow=hidden;strokeColor=inherit;fontSize=16;" vertex="1" parent="tBWeNhroIXiAKM73kzLI-166">
          <mxGeometry width="40" height="30" as="geometry">
            <mxRectangle width="40" height="30" as="alternateBounds" />
          </mxGeometry>
        </mxCell>
        <mxCell id="tBWeNhroIXiAKM73kzLI-168" value="Flavor" style="shape=partialRectangle;html=1;whiteSpace=wrap;connectable=0;fillColor=none;top=0;left=0;bottom=0;right=0;align=left;spacingLeft=6;overflow=hidden;strokeColor=inherit;fontSize=16;" vertex="1" parent="tBWeNhroIXiAKM73kzLI-166">
          <mxGeometry x="40" width="140" height="30" as="geometry">
            <mxRectangle width="140" height="30" as="alternateBounds" />
          </mxGeometry>
        </mxCell>
        <mxCell id="tBWeNhroIXiAKM73kzLI-91" value="Table" style="shape=table;startSize=30;container=1;collapsible=0;childLayout=tableLayout;fixedRows=1;rowLines=0;fontStyle=0;strokeColor=default;fontSize=16;" vertex="1" parent="1">
          <mxGeometry x="-280" y="880" width="180" height="120" as="geometry" />
        </mxCell>
        <mxCell id="tBWeNhroIXiAKM73kzLI-92" value="" style="shape=tableRow;horizontal=0;startSize=0;swimlaneHead=0;swimlaneBody=0;top=0;left=0;bottom=0;right=0;collapsible=0;dropTarget=0;fillColor=none;points=[[0,0.5],[1,0.5]];portConstraint=eastwest;strokeColor=inherit;fontSize=16;" vertex="1" parent="tBWeNhroIXiAKM73kzLI-91">
          <mxGeometry y="30" width="180" height="30" as="geometry" />
        </mxCell>
        <mxCell id="tBWeNhroIXiAKM73kzLI-93" value="1" style="shape=partialRectangle;html=1;whiteSpace=wrap;connectable=0;fillColor=none;top=0;left=0;bottom=0;right=0;overflow=hidden;pointerEvents=1;strokeColor=inherit;fontSize=16;" vertex="1" parent="tBWeNhroIXiAKM73kzLI-92">
          <mxGeometry width="40" height="30" as="geometry">
            <mxRectangle width="40" height="30" as="alternateBounds" />
          </mxGeometry>
        </mxCell>
        <mxCell id="tBWeNhroIXiAKM73kzLI-94" value="Value 1" style="shape=partialRectangle;html=1;whiteSpace=wrap;connectable=0;fillColor=none;top=0;left=0;bottom=0;right=0;align=left;spacingLeft=6;overflow=hidden;strokeColor=inherit;fontSize=16;" vertex="1" parent="tBWeNhroIXiAKM73kzLI-92">
          <mxGeometry x="40" width="140" height="30" as="geometry">
            <mxRectangle width="140" height="30" as="alternateBounds" />
          </mxGeometry>
        </mxCell>
        <mxCell id="tBWeNhroIXiAKM73kzLI-95" value="" style="shape=tableRow;horizontal=0;startSize=0;swimlaneHead=0;swimlaneBody=0;top=0;left=0;bottom=0;right=0;collapsible=0;dropTarget=0;fillColor=none;points=[[0,0.5],[1,0.5]];portConstraint=eastwest;strokeColor=inherit;fontSize=16;" vertex="1" parent="tBWeNhroIXiAKM73kzLI-91">
          <mxGeometry y="60" width="180" height="30" as="geometry" />
        </mxCell>
        <mxCell id="tBWeNhroIXiAKM73kzLI-96" value="2" style="shape=partialRectangle;html=1;whiteSpace=wrap;connectable=0;fillColor=none;top=0;left=0;bottom=0;right=0;overflow=hidden;strokeColor=inherit;fontSize=16;" vertex="1" parent="tBWeNhroIXiAKM73kzLI-95">
          <mxGeometry width="40" height="30" as="geometry">
            <mxRectangle width="40" height="30" as="alternateBounds" />
          </mxGeometry>
        </mxCell>
        <mxCell id="tBWeNhroIXiAKM73kzLI-97" value="Value 2" style="shape=partialRectangle;html=1;whiteSpace=wrap;connectable=0;fillColor=none;top=0;left=0;bottom=0;right=0;align=left;spacingLeft=6;overflow=hidden;strokeColor=inherit;fontSize=16;" vertex="1" parent="tBWeNhroIXiAKM73kzLI-95">
          <mxGeometry x="40" width="140" height="30" as="geometry">
            <mxRectangle width="140" height="30" as="alternateBounds" />
          </mxGeometry>
        </mxCell>
        <mxCell id="tBWeNhroIXiAKM73kzLI-98" value="" style="shape=tableRow;horizontal=0;startSize=0;swimlaneHead=0;swimlaneBody=0;top=0;left=0;bottom=0;right=0;collapsible=0;dropTarget=0;fillColor=none;points=[[0,0.5],[1,0.5]];portConstraint=eastwest;strokeColor=inherit;fontSize=16;" vertex="1" parent="tBWeNhroIXiAKM73kzLI-91">
          <mxGeometry y="90" width="180" height="30" as="geometry" />
        </mxCell>
        <mxCell id="tBWeNhroIXiAKM73kzLI-99" value="3" style="shape=partialRectangle;html=1;whiteSpace=wrap;connectable=0;fillColor=none;top=0;left=0;bottom=0;right=0;overflow=hidden;strokeColor=inherit;fontSize=16;" vertex="1" parent="tBWeNhroIXiAKM73kzLI-98">
          <mxGeometry width="40" height="30" as="geometry">
            <mxRectangle width="40" height="30" as="alternateBounds" />
          </mxGeometry>
        </mxCell>
        <mxCell id="tBWeNhroIXiAKM73kzLI-100" value="Value 3" style="shape=partialRectangle;html=1;whiteSpace=wrap;connectable=0;fillColor=none;top=0;left=0;bottom=0;right=0;align=left;spacingLeft=6;overflow=hidden;strokeColor=inherit;fontSize=16;" vertex="1" parent="tBWeNhroIXiAKM73kzLI-98">
          <mxGeometry x="40" width="140" height="30" as="geometry">
            <mxRectangle width="140" height="30" as="alternateBounds" />
          </mxGeometry>
        </mxCell>
        <mxCell id="tBWeNhroIXiAKM73kzLI-129" value="Should I add cup size?" style="rounded=1;whiteSpace=wrap;html=1;" vertex="1" parent="1">
          <mxGeometry x="-200" y="360" width="120" height="40" as="geometry" />
        </mxCell>
        <mxCell id="tBWeNhroIXiAKM73kzLI-127" value="Currency Exchange" style="rounded=1;whiteSpace=wrap;html=1;" vertex="1" parent="1">
          <mxGeometry x="-200" y="410" width="120" height="40" as="geometry" />
        </mxCell>
        <mxCell id="tBWeNhroIXiAKM73kzLI-137" value="" style="ellipse;whiteSpace=wrap;html=1;aspect=fixed;" vertex="1" parent="1">
          <mxGeometry x="-280" y="800" width="40" height="40" as="geometry" />
        </mxCell>
        <mxCell id="tBWeNhroIXiAKM73kzLI-157" value="" style="rounded=1;whiteSpace=wrap;html=1;" vertex="1" parent="1">
          <mxGeometry x="-220" y="800" width="120" height="40" as="geometry" />
        </mxCell>
        <mxCell id="tBWeNhroIXiAKM73kzLI-158" value="Cash calculations&lt;div&gt;correct change&lt;/div&gt;" style="rounded=1;whiteSpace=wrap;html=1;" vertex="1" parent="1">
          <mxGeometry x="-200" y="460" width="120" height="40" as="geometry" />
        </mxCell>
        <mxCell id="tBWeNhroIXiAKM73kzLI-169" value="Temp sensors&lt;div&gt;notifications&lt;/div&gt;&lt;div&gt;Tilt sensor&lt;/div&gt;&lt;div&gt;Drink door Sensor&lt;/div&gt;" style="rounded=1;whiteSpace=wrap;html=1;" vertex="1" parent="1">
          <mxGeometry x="-200" y="510" width="120" height="70" as="geometry" />
        </mxCell>
        <mxCell id="tBWeNhroIXiAKM73kzLI-170" value="Validate card payments" style="rounded=1;whiteSpace=wrap;html=1;" vertex="1" parent="1">
          <mxGeometry x="-200" y="590" width="120" height="40" as="geometry" />
        </mxCell>
        <mxCell id="tBWeNhroIXiAKM73kzLI-171" value="Sales info" style="rounded=1;whiteSpace=wrap;html=1;" vertex="1" parent="1">
          <mxGeometry x="-200" y="640" width="120" height="40" as="geometry" />
        </mxCell>
        <mxCell id="tBWeNhroIXiAKM73kzLI-172" value="Oz tracker for inventory control" style="rounded=1;whiteSpace=wrap;html=1;" vertex="1" parent="1">
          <mxGeometry x="-200" y="690" width="120" height="40" as="geometry" />
        </mxCell>
      </root>
    </mxGraphModel>
  </diagram>
</mxfile>
